<svg class="rich-terminal" viewBox="0 0 1287 830.8" xmlns="http://www.w3.org/2000/svg">
    <!-- Generated with Rich https://www.textualize.io -->
    <style>

    @font-face {
        font-family: "Fira Code";
        src: local("FiraCode-Regular"),
                url("https://cdnjs.cloudflare.com/ajax/libs/firacode/6.2.0/woff2/FiraCode-Regular.woff2") format("woff2"),
                url("https://cdnjs.cloudflare.com/ajax/libs/firacode/6.2.0/woff/FiraCode-Regular.woff") format("woff");
        font-style: normal;
        font-weight: 400;
    }
    @font-face {
        font-family: "Fira Code";
        src: local("FiraCode-Bold"),
                url("https://cdnjs.cloudflare.com/ajax/libs/firacode/6.2.0/woff2/FiraCode-Bold.woff2") format("woff2"),
                url("https://cdnjs.cloudflare.com/ajax/libs/firacode/6.2.0/woff/FiraCode-Bold.woff") format("woff");
        font-style: bold;
        font-weight: 700;
    }

    .terminal-3109079472-matrix {
        font-family: Fira Code, monospace;
        font-size: 20px;
        line-height: 24.4px;
        font-variant-east-asian: full-width;
    }

    .terminal-3109079472-title {
        font-size: 18px;
        font-weight: bold;
        font-family: arial;
    }

    .terminal-3109079472-r1 { fill: #c5c8c6 }
.terminal-3109079472-r2 { fill: #1a1b26;font-weight: bold }
.terminal-3109079472-r3 { fill: #c0caf5 }
.terminal-3109079472-r4 { fill: #7dcfff;font-weight: bold }
.terminal-3109079472-r5 { fill: #565f89 }
.terminal-3109079472-r6 { fill: #737aa2 }
.terminal-3109079472-r7 { fill: #7aa2f7;font-weight: bold }
.terminal-3109079472-r8 { fill: #c0caf5;font-weight: bold }
.terminal-3109079472-r9 { fill: #bb9af7 }
.terminal-3109079472-r10 { fill: #bb9af7;font-weight: bold }
.terminal-3109079472-r11 { fill: #9ece6a }
.terminal-3109079472-r12 { fill: #9ece6a;font-weight: bold }
.terminal-3109079472-r13 { fill: #7dcfff }
.terminal-3109079472-r14 { fill: #e0e0e0 }
.terminal-3109079472-r15 { fill: #121212 }
    </style>

    <defs>
    <clipPath id="terminal-3109079472-clip-terminal">
      <rect x="0" y="0" width="1267.8" height="779.8" />
    </clipPath>
    <clipPath id="terminal-3109079472-line-0">
    <rect x="0" y="1.5" width="1268.8" height="24.65"/>
            </clipPath>
<clipPath id="terminal-3109079472-line-1">
    <rect x="0" y="25.9" width="1268.8" height="24.65"/>
            </clipPath>
<clipPath id="terminal-3109079472-line-2">
    <rect x="0" y="50.3" width="1268.8" height="24.65"/>
            </clipPath>
<clipPath id="terminal-3109079472-line-3">
    <rect x="0" y="74.7" width="1268.8" height="24.65"/>
            </clipPath>
<clipPath id="terminal-3109079472-line-4">
    <rect x="0" y="99.1" width="1268.8" height="24.65"/>
            </clipPath>
<clipPath id="terminal-3109079472-line-5">
    <rect x="0" y="123.5" width="1268.8" height="24.65"/>
            </clipPath>
<clipPath id="terminal-3109079472-line-6">
    <rect x="0" y="147.9" width="1268.8" height="24.65"/>
            </clipPath>
<clipPath id="terminal-3109079472-line-7">
    <rect x="0" y="172.3" width="1268.8" height="24.65"/>
            </clipPath>
<clipPath id="terminal-3109079472-line-8">
    <rect x="0" y="196.7" width="1268.8" height="24.65"/>
            </clipPath>
<clipPath id="terminal-3109079472-line-9">
    <rect x="0" y="221.1" width="1268.8" height="24.65"/>
            </clipPath>
<clipPath id="terminal-3109079472-line-10">
    <rect x="0" y="245.5" width="1268.8" height="24.65"/>
            </clipPath>
<clipPath id="terminal-3109079472-line-11">
    <rect x="0" y="269.9" width="1268.8" height="24.65"/>
            </clipPath>
<clipPath id="terminal-3109079472-line-12">
    <rect x="0" y="294.3" width="1268.8" height="24.65"/>
            </clipPath>
<clipPath id="terminal-3109079472-line-13">
    <rect x="0" y="318.7" width="1268.8" height="24.65"/>
            </clipPath>
<clipPath id="terminal-3109079472-line-14">
    <rect x="0" y="343.1" width="1268.8" height="24.65"/>
            </clipPath>
<clipPath id="terminal-3109079472-line-15">
    <rect x="0" y="367.5" width="1268.8" height="24.65"/>
            </clipPath>
<clipPath id="terminal-3109079472-line-16">
    <rect x="0" y="391.9" width="1268.8" height="24.65"/>
            </clipPath>
<clipPath id="terminal-3109079472-line-17">
    <rect x="0" y="416.3" width="1268.8" height="24.65"/>
            </clipPath>
<clipPath id="terminal-3109079472-line-18">
    <rect x="0" y="440.7" width="1268.8" height="24.65"/>
            </clipPath>
<clipPath id="terminal-3109079472-line-19">
    <rect x="0" y="465.1" width="1268.8" height="24.65"/>
            </clipPath>
<clipPath id="terminal-3109079472-line-20">
    <rect x="0" y="489.5" width="1268.8" height="24.65"/>
            </clipPath>
<clipPath id="terminal-3109079472-line-21">
    <rect x="0" y="513.9" width="1268.8" height="24.65"/>
            </clipPath>
<clipPath id="terminal-3109079472-line-22">
    <rect x="0" y="538.3" width="1268.8" height="24.65"/>
            </clipPath>
<clipPath id="terminal-3109079472-line-23">
    <rect x="0" y="562.7" width="1268.8" height="24.65"/>
            </clipPath>
<clipPath id="terminal-3109079472-line-24">
    <rect x="0" y="587.1" width="1268.8" height="24.65"/>
            </clipPath>
<clipPath id="terminal-3109079472-line-25">
    <rect x="0" y="611.5" width="1268.8" height="24.65"/>
            </clipPath>
<clipPath id="terminal-3109079472-line-26">
    <rect x="0" y="635.9" width="1268.8" height="24.65"/>
            </clipPath>
<clipPath id="terminal-3109079472-line-27">
    <rect x="0" y="660.3" width="1268.8" height="24.65"/>
            </clipPath>
<clipPath id="terminal-3109079472-line-28">
    <rect x="0" y="684.7" width="1268.8" height="24.65"/>
            </clipPath>
<clipPath id="terminal-3109079472-line-29">
    <rect x="0" y="709.1" width="1268.8" height="24.65"/>
            </clipPath>
<clipPath id="terminal-3109079472-line-30">
    <rect x="0" y="733.5" width="1268.8" height="24.65"/>
            </clipPath>
    </defs>

    <rect fill="#292929" stroke="rgba(255,255,255,0.35)" stroke-width="1" x="1" y="1" width="1285" height="828.8" rx="8"/><text class="terminal-3109079472-title" fill="#c5c8c6" text-anchor="middle" x="642" y="27">DeerFlow&#160;TUI</text>
            <g transform="translate(26,22)">
            <circle cx="0" cy="0" r="7" fill="#ff5f57"/>
            <circle cx="22" cy="0" r="7" fill="#febc2e"/>
            <circle cx="44" cy="0" r="7" fill="#28c840"/>
            </g>
        
    <g transform="translate(9, 41)" clip-path="url(#terminal-3109079472-clip-terminal)">
    <rect fill="#1f2335" x="0" y="1.5" width="12.2" height="24.65" shape-rendering="crispEdges"/><rect fill="#7dcfff" x="12.2" y="1.5" width="122" height="24.65" shape-rendering="crispEdges"/><rect fill="#1f2335" x="134.2" y="1.5" width="24.4" height="24.65" shape-rendering="crispEdges"/><rect fill="#1f2335" x="158.6" y="1.5" width="183" height="24.65" shape-rendering="crispEdges"/><rect fill="#1f2335" x="341.6" y="1.5" width="61" height="24.65" shape-rendering="crispEdges"/><rect fill="#1f2335" x="402.6" y="1.5" width="183" height="24.65" shape-rendering="crispEdges"/><rect fill="#1f2335" x="585.6" y="1.5" width="61" height="24.65" shape-rendering="crispEdges"/><rect fill="#1f2335" x="646.6" y="1.5" width="488" height="24.65" shape-rendering="crispEdges"/><rect fill="#1f2335" x="1134.6" y="1.5" width="61" height="24.65" shape-rendering="crispEdges"/><rect fill="#1f2335" x="1195.6" y="1.5" width="12.2" height="24.65" shape-rendering="crispEdges"/><rect fill="#1f2335" x="1207.8" y="1.5" width="48.8" height="24.65" shape-rendering="crispEdges"/><rect fill="#1f2335" x="1256.6" y="1.5" width="12.2" height="24.65" shape-rendering="crispEdges"/><rect fill="#1a1b26" x="0" y="25.9" width="1244.4" height="24.65" shape-rendering="crispEdges"/><rect fill="#1a1b26" x="1244.4" y="25.9" width="24.4" height="24.65" shape-rendering="crispEdges"/><rect fill="#1a1b26" x="0" y="50.3" width="24.4" height="24.65" shape-rendering="crispEdges"/><rect fill="#1a1b26" x="24.4" y="50.3" width="24.4" height="24.65" shape-rendering="crispEdges"/><rect fill="#1a1b26" x="48.8" y="50.3" width="671" height="24.65" shape-rendering="crispEdges"/><rect fill="#1a1b26" x="719.8" y="50.3" width="500.2" height="24.65" shape-rendering="crispEdges"/><rect fill="#1a1b26" x="1220" y="50.3" width="24.4" height="24.65" shape-rendering="crispEdges"/><rect fill="#1a1b26" x="1244.4" y="50.3" width="24.4" height="24.65" shape-rendering="crispEdges"/><rect fill="#1a1b26" x="0" y="74.7" width="24.4" height="24.65" shape-rendering="crispEdges"/><rect fill="#1a1b26" x="24.4" y="74.7" width="0" height="24.65" shape-rendering="crispEdges"/><rect fill="#1a1b26" x="24.4" y="74.7" width="1195.6" height="24.65" shape-rendering="crispEdges"/><rect fill="#1a1b26" x="1220" y="74.7" width="24.4" height="24.65" shape-rendering="crispEdges"/><rect fill="#1a1b26" x="1244.4" y="74.7" width="24.4" height="24.65" shape-rendering="crispEdges"/><rect fill="#1a1b26" x="0" y="99.1" width="24.4" height="24.65" shape-rendering="crispEdges"/><rect fill="#1a1b26" x="24.4" y="99.1" width="24.4" height="24.65" shape-rendering="crispEdges"/><rect fill="#1a1b26" x="48.8" y="99.1" width="561.2" height="24.65" shape-rendering="crispEdges"/><rect fill="#1a1b26" x="610" y="99.1" width="610" height="24.65" shape-rendering="crispEdges"/><rect fill="#1a1b26" x="1220" y="99.1" width="24.4" height="24.65" shape-rendering="crispEdges"/><rect fill="#1a1b26" x="1244.4" y="99.1" width="24.4" height="24.65" shape-rendering="crispEdges"/><rect fill="#1a1b26" x="0" y="123.5" width="24.4" height="24.65" shape-rendering="crispEdges"/><rect fill="#1a1b26" x="24.4" y="123.5" width="0" height="24.65" shape-rendering="crispEdges"/><rect fill="#1a1b26" x="24.4" y="123.5" width="1195.6" height="24.65" shape-rendering="crispEdges"/><rect fill="#1a1b26" x="1220" y="123.5" width="24.4" height="24.65" shape-rendering="crispEdges"/><rect fill="#1a1b26" x="1244.4" y="123.5" width="24.4" height="24.65" shape-rendering="crispEdges"/><rect fill="#1a1b26" x="0" y="147.9" width="24.4" height="24.65" shape-rendering="crispEdges"/><rect fill="#1a1b26" x="24.4" y="147.9" width="48.8" height="24.65" shape-rendering="crispEdges"/><rect fill="#1a1b26" x="73.2" y="147.9" width="48.8" height="24.65" shape-rendering="crispEdges"/><rect fill="#1a1b26" x="122" y="147.9" width="305" height="24.65" shape-rendering="crispEdges"/><rect fill="#1a1b26" x="427" y="147.9" width="48.8" height="24.65" shape-rendering="crispEdges"/><rect fill="#1a1b26" x="475.8" y="147.9" width="744.2" height="24.65" shape-rendering="crispEdges"/><rect fill="#1a1b26" x="1220" y="147.9" width="24.4" height="24.65" shape-rendering="crispEdges"/><rect fill="#1a1b26" x="1244.4" y="147.9" width="24.4" height="24.65" shape-rendering="crispEdges"/><rect fill="#1a1b26" x="0" y="172.3" width="24.4" height="24.65" shape-rendering="crispEdges"/><rect fill="#1a1b26" x="24.4" y="172.3" width="719.8" height="24.65" shape-rendering="crispEdges"/><rect fill="#1a1b26" x="744.2" y="172.3" width="475.8" height="24.65" shape-rendering="crispEdges"/><rect fill="#1a1b26" x="1220" y="172.3" width="24.4" height="24.65" shape-rendering="crispEdges"/><rect fill="#1a1b26" x="1244.4" y="172.3" width="24.4" height="24.65" shape-rendering="crispEdges"/><rect fill="#1a1b26" x="0" y="196.7" width="24.4" height="24.65" shape-rendering="crispEdges"/><rect fill="#1a1b26" x="24.4" y="196.7" width="0" height="24.65" shape-rendering="crispEdges"/><rect fill="#1a1b26" x="24.4" y="196.7" width="1195.6" height="24.65" shape-rendering="crispEdges"/><rect fill="#1a1b26" x="1220" y="196.7" width="24.4" height="24.65" shape-rendering="crispEdges"/><rect fill="#1a1b26" x="1244.4" y="196.7" width="24.4" height="24.65" shape-rendering="crispEdges"/><rect fill="#1a1b26" x="0" y="221.1" width="24.4" height="24.65" shape-rendering="crispEdges"/><rect fill="#1a1b26" x="24.4" y="221.1" width="48.8" height="24.65" shape-rendering="crispEdges"/><rect fill="#1a1b26" x="73.2" y="221.1" width="48.8" height="24.65" shape-rendering="crispEdges"/><rect fill="#1a1b26" x="122" y="221.1" width="451.4" height="24.65" shape-rendering="crispEdges"/><rect fill="#1a1b26" x="573.4" y="221.1" width="48.8" height="24.65" shape-rendering="crispEdges"/><rect fill="#1a1b26" x="622.2" y="221.1" width="597.8" height="24.65" shape-rendering="crispEdges"/><rect fill="#1a1b26" x="1220" y="221.1" width="24.4" height="24.65" shape-rendering="crispEdges"/><rect fill="#1a1b26" x="1244.4" y="221.1" width="24.4" height="24.65" shape-rendering="crispEdges"/><rect fill="#1a1b26" x="0" y="245.5" width="24.4" height="24.65" shape-rendering="crispEdges"/><rect fill="#1a1b26" x="24.4" y="245.5" width="256.2" height="24.65" shape-rendering="crispEdges"/><rect fill="#1a1b26" x="280.6" y="245.5" width="939.4" height="24.65" shape-rendering="crispEdges"/><rect fill="#1a1b26" x="1220" y="245.5" width="24.4" height="24.65" shape-rendering="crispEdges"/><rect fill="#1a1b26" x="1244.4" y="245.5" width="24.4" height="24.65" shape-rendering="crispEdges"/><rect fill="#1a1b26" x="0" y="269.9" width="24.4" height="24.65" shape-rendering="crispEdges"/><rect fill="#1a1b26" x="24.4" y="269.9" width="0" height="24.65" shape-rendering="crispEdges"/><rect fill="#1a1b26" x="24.4" y="269.9" width="1195.6" height="24.65" shape-rendering="crispEdges"/><rect fill="#1a1b26" x="1220" y="269.9" width="24.4" height="24.65" shape-rendering="crispEdges"/><rect fill="#1a1b26" x="1244.4" y="269.9" width="24.4" height="24.65" shape-rendering="crispEdges"/><rect fill="#1a1b26" x="0" y="294.3" width="24.4" height="24.65" shape-rendering="crispEdges"/><rect fill="#1a1b26" x="24.4" y="294.3" width="24.4" height="24.65" shape-rendering="crispEdges"/><rect fill="#1a1b26" x="48.8" y="294.3" width="1171.2" height="24.65" shape-rendering="crispEdges"/><rect fill="#1a1b26" x="1220" y="294.3" width="24.4" height="24.65" shape-rendering="crispEdges"/><rect fill="#1a1b26" x="1244.4" y="294.3" width="24.4" height="24.65" shape-rendering="crispEdges"/><rect fill="#1a1b26" x="0" y="318.7" width="24.4" height="24.65" shape-rendering="crispEdges"/><rect fill="#1a1b26" x="24.4" y="318.7" width="451.4" height="24.65" shape-rendering="crispEdges"/><rect fill="#1a1b26" x="475.8" y="318.7" width="744.2" height="24.65" shape-rendering="crispEdges"/><rect fill="#1a1b26" x="1220" y="318.7" width="24.4" height="24.65" shape-rendering="crispEdges"/><rect fill="#1a1b26" x="1244.4" y="318.7" width="24.4" height="24.65" shape-rendering="crispEdges"/><rect fill="#1a1b26" x="0" y="343.1" width="24.4" height="24.65" shape-rendering="crispEdges"/><rect fill="#1a1b26" x="24.4" y="343.1" width="1195.6" height="24.65" shape-rendering="crispEdges"/><rect fill="#1a1b26" x="1220" y="343.1" width="24.4" height="24.65" shape-rendering="crispEdges"/><rect fill="#1a1b26" x="1244.4" y="343.1" width="24.4" height="24.65" shape-rendering="crispEdges"/><rect fill="#1a1b26" x="0" y="367.5" width="24.4" height="24.65" shape-rendering="crispEdges"/><rect fill="#1a1b26" x="24.4" y="367.5" width="1195.6" height="24.65" shape-rendering="crispEdges"/><rect fill="#1a1b26" x="1220" y="367.5" width="24.4" height="24.65" shape-rendering="crispEdges"/><rect fill="#1a1b26" x="1244.4" y="367.5" width="24.4" height="24.65" shape-rendering="crispEdges"/><rect fill="#1a1b26" x="0" y="391.9" width="24.4" height="24.65" shape-rendering="crispEdges"/><rect fill="#1a1b26" x="24.4" y="391.9" width="1195.6" height="24.65" shape-rendering="crispEdges"/><rect fill="#1a1b26" x="1220" y="391.9" width="24.4" height="24.65" shape-rendering="crispEdges"/><rect fill="#1a1b26" x="1244.4" y="391.9" width="24.4" height="24.65" shape-rendering="crispEdges"/><rect fill="#1a1b26" x="0" y="416.3" width="24.4" height="24.65" shape-rendering="crispEdges"/><rect fill="#1a1b26" x="24.4" y="416.3" width="1195.6" height="24.65" shape-rendering="crispEdges"/><rect fill="#1a1b26" x="1220" y="416.3" width="24.4" height="24.65" shape-rendering="crispEdges"/><rect fill="#1a1b26" x="1244.4" y="416.3" width="24.4" height="24.65" shape-rendering="crispEdges"/><rect fill="#1a1b26" x="0" y="440.7" width="24.4" height="24.65" shape-rendering="crispEdges"/><rect fill="#1a1b26" x="24.4" y="440.7" width="1195.6" height="24.65" shape-rendering="crispEdges"/><rect fill="#1a1b26" x="1220" y="440.7" width="24.4" height="24.65" shape-rendering="crispEdges"/><rect fill="#1a1b26" x="1244.4" y="440.7" width="24.4" height="24.65" shape-rendering="crispEdges"/><rect fill="#1a1b26" x="0" y="465.1" width="24.4" height="24.65" shape-rendering="crispEdges"/><rect fill="#1a1b26" x="24.4" y="465.1" width="1195.6" height="24.65" shape-rendering="crispEdges"/><rect fill="#1a1b26" x="1220" y="465.1" width="24.4" height="24.65" shape-rendering="crispEdges"/><rect fill="#1a1b26" x="1244.4" y="465.1" width="24.4" height="24.65" shape-rendering="crispEdges"/><rect fill="#1a1b26" x="0" y="489.5" width="24.4" height="24.65" shape-rendering="crispEdges"/><rect fill="#1a1b26" x="24.4" y="489.5" width="1195.6" height="24.65" shape-rendering="crispEdges"/><rect fill="#1a1b26" x="1220" y="489.5" width="24.4" height="24.65" shape-rendering="crispEdges"/><rect fill="#1a1b26" x="1244.4" y="489.5" width="24.4" height="24.65" shape-rendering="crispEdges"/><rect fill="#1a1b26" x="0" y="513.9" width="24.4" height="24.65" shape-rendering="crispEdges"/><rect fill="#1a1b26" x="24.4" y="513.9" width="1195.6" height="24.65" shape-rendering="crispEdges"/><rect fill="#1a1b26" x="1220" y="513.9" width="24.4" height="24.65" shape-rendering="crispEdges"/><rect fill="#1a1b26" x="1244.4" y="513.9" width="24.4" height="24.65" shape-rendering="crispEdges"/><rect fill="#1a1b26" x="0" y="538.3" width="24.4" height="24.65" shape-rendering="crispEdges"/><rect fill="#1a1b26" x="24.4" y="538.3" width="1195.6" height="24.65" shape-rendering="crispEdges"/><rect fill="#1a1b26" x="1220" y="538.3" width="24.4" height="24.65" shape-rendering="crispEdges"/><rect fill="#1a1b26" x="1244.4" y="538.3" width="24.4" height="24.65" shape-rendering="crispEdges"/><rect fill="#1a1b26" x="0" y="562.7" width="24.4" height="24.65" shape-rendering="crispEdges"/><rect fill="#1a1b26" x="24.4" y="562.7" width="1195.6" height="24.65" shape-rendering="crispEdges"/><rect fill="#1a1b26" x="1220" y="562.7" width="24.4" height="24.65" shape-rendering="crispEdges"/><rect fill="#1a1b26" x="1244.4" y="562.7" width="24.4" height="24.65" shape-rendering="crispEdges"/><rect fill="#1a1b26" x="0" y="587.1" width="24.4" height="24.65" shape-rendering="crispEdges"/><rect fill="#1a1b26" x="24.4" y="587.1" width="1195.6" height="24.65" shape-rendering="crispEdges"/><rect fill="#1a1b26" x="1220" y="587.1" width="24.4" height="24.65" shape-rendering="crispEdges"/><rect fill="#1a1b26" x="1244.4" y="587.1" width="24.4" height="24.65" shape-rendering="crispEdges"/><rect fill="#1a1b26" x="0" y="611.5" width="24.4" height="24.65" shape-rendering="crispEdges"/><rect fill="#1a1b26" x="24.4" y="611.5" width="1195.6" height="24.65" shape-rendering="crispEdges"/><rect fill="#1a1b26" x="1220" y="611.5" width="24.4" height="24.65" shape-rendering="crispEdges"/><rect fill="#1a1b26" x="1244.4" y="611.5" width="24.4" height="24.65" shape-rendering="crispEdges"/><rect fill="#1a1b26" x="0" y="635.9" width="1244.4" height="24.65" shape-rendering="crispEdges"/><rect fill="#1a1b26" x="1244.4" y="635.9" width="24.4" height="24.65" shape-rendering="crispEdges"/><rect fill="#1f2335" x="0" y="660.3" width="12.2" height="24.65" shape-rendering="crispEdges"/><rect fill="#1f2335" x="12.2" y="660.3" width="85.4" height="24.65" shape-rendering="crispEdges"/><rect fill="#1f2335" x="97.6" y="660.3" width="36.6" height="24.65" shape-rendering="crispEdges"/><rect fill="#1f2335" x="134.2" y="660.3" width="183" height="24.65" shape-rendering="crispEdges"/><rect fill="#1f2335" x="317.2" y="660.3" width="36.6" height="24.65" shape-rendering="crispEdges"/><rect fill="#1f2335" x="353.8" y="660.3" width="183" height="24.65" shape-rendering="crispEdges"/><rect fill="#1f2335" x="536.8" y="660.3" width="36.6" height="24.65" shape-rendering="crispEdges"/><rect fill="#1f2335" x="573.4" y="660.3" width="97.6" height="24.65" shape-rendering="crispEdges"/><rect fill="#1f2335" x="671" y="660.3" width="585.6" height="24.65" shape-rendering="crispEdges"/><rect fill="#1f2335" x="1256.6" y="660.3" width="12.2" height="24.65" shape-rendering="crispEdges"/><rect fill="#1a1b26" x="0" y="684.7" width="12.2" height="24.65" shape-rendering="crispEdges"/><rect fill="#282c3d" x="12.2" y="684.7" width="12.2" height="24.65" shape-rendering="crispEdges"/><rect fill="#282c3d" x="24.4" y="684.7" width="1220" height="24.65" shape-rendering="crispEdges"/><rect fill="#282c3d" x="1244.4" y="684.7" width="12.2" height="24.65" shape-rendering="crispEdges"/><rect fill="#1a1b26" x="1256.6" y="684.7" width="12.2" height="24.65" shape-rendering="crispEdges"/><rect fill="#1a1b26" x="0" y="709.1" width="12.2" height="24.65" shape-rendering="crispEdges"/><rect fill="#282c3d" x="12.2" y="709.1" width="12.2" height="24.65" shape-rendering="crispEdges"/><rect fill="#282c3d" x="24.4" y="709.1" width="24.4" height="24.65" shape-rendering="crispEdges"/><rect fill="#282c3d" x="48.8" y="709.1" width="341.6" height="24.65" shape-rendering="crispEdges"/><rect fill="#e0e0e0" x="390.4" y="709.1" width="12.2" height="24.65" shape-rendering="crispEdges"/><rect fill="#282c3d" x="402.6" y="709.1" width="817.4" height="24.65" shape-rendering="crispEdges"/><rect fill="#282c3d" x="1220" y="709.1" width="24.4" height="24.65" shape-rendering="crispEdges"/><rect fill="#282c3d" x="1244.4" y="709.1" width="12.2" height="24.65" shape-rendering="crispEdges"/><rect fill="#1a1b26" x="1256.6" y="709.1" width="12.2" height="24.65" shape-rendering="crispEdges"/><rect fill="#1a1b26" x="0" y="733.5" width="12.2" height="24.65" shape-rendering="crispEdges"/><rect fill="#282c3d" x="12.2" y="733.5" width="12.2" height="24.65" shape-rendering="crispEdges"/><rect fill="#282c3d" x="24.4" y="733.5" width="1220" height="24.65" shape-rendering="crispEdges"/><rect fill="#282c3d" x="1244.4" y="733.5" width="12.2" height="24.65" shape-rendering="crispEdges"/><rect fill="#1a1b26" x="1256.6" y="733.5" width="12.2" height="24.65" shape-rendering="crispEdges"/><rect fill="#1a1b26" x="0" y="757.9" width="1268.8" height="24.65" shape-rendering="crispEdges"/>
    <g class="terminal-3109079472-matrix">
    <text class="terminal-3109079472-r2" x="12.2" y="20" textLength="122" clip-path="url(#terminal-3109079472-line-0)">&#160;DeerFlow&#160;</text><text class="terminal-3109079472-r4" x="158.6" y="20" textLength="183" clip-path="url(#terminal-3109079472-line-0)">claude-opus-4.8</text><text class="terminal-3109079472-r5" x="341.6" y="20" textLength="61" clip-path="url(#terminal-3109079472-line-0)">&#160;&#160;·&#160;&#160;</text><text class="terminal-3109079472-r6" x="402.6" y="20" textLength="183" clip-path="url(#terminal-3109079472-line-0)">thread&#160;4f2a8c1d</text><text class="terminal-3109079472-r5" x="585.6" y="20" textLength="61" clip-path="url(#terminal-3109079472-line-0)">&#160;&#160;·&#160;&#160;</text><text class="terminal-3109079472-r5" x="646.6" y="20" textLength="488" clip-path="url(#terminal-3109079472-line-0)">/Users/taohe/workspace/deer-flow/backend</text><text class="terminal-3109079472-r5" x="1134.6" y="20" textLength="61" clip-path="url(#terminal-3109079472-line-0)">&#160;&#160;·&#160;&#160;</text><text class="terminal-3109079472-r5" x="1195.6" y="20" textLength="12.2" clip-path="url(#terminal-3109079472-line-0)">1</text><text class="terminal-3109079472-r1" x="1268.8" y="20" textLength="12.2" clip-path="url(#terminal-3109079472-line-0)">
</text><text class="terminal-3109079472-r1" x="1268.8" y="44.4" textLength="12.2" clip-path="url(#terminal-3109079472-line-1)">
</text><text class="terminal-3109079472-r7" x="24.4" y="68.8" textLength="24.4" clip-path="url(#terminal-3109079472-line-2)">›&#160;</text><text class="terminal-3109079472-r7" x="48.8" y="68.8" textLength="671" clip-path="url(#terminal-3109079472-line-2)">Refactor&#160;the&#160;streaming&#160;bridge&#160;and&#160;add&#160;a&#160;regression&#160;test</text><text class="terminal-3109079472-r1" x="1268.8" y="68.8" textLength="12.2" clip-path="url(#terminal-3109079472-line-2)">
</text><text class="terminal-3109079472-r1" x="1268.8" y="93.2" textLength="12.2" clip-path="url(#terminal-3109079472-line-3)">
</text><text class="terminal-3109079472-r8" x="24.4" y="117.6" textLength="24.4" clip-path="url(#terminal-3109079472-line-4)">●&#160;</text><text class="terminal-3109079472-r3" x="48.8" y="117.6" textLength="561.2" clip-path="url(#terminal-3109079472-line-4)">I&#x27;ll&#160;read&#160;the&#160;bridge,&#160;then&#160;add&#160;a&#160;focused&#160;test.</text><text class="terminal-3109079472-r1" x="1268.8" y="117.6" textLength="12.2" clip-path="url(#terminal-3109079472-line-4)">
</text><text class="terminal-3109079472-r1" x="1268.8" y="142" textLength="12.2" clip-path="url(#terminal-3109079472-line-5)">
</text><text class="terminal-3109079472-r9" x="24.4" y="166.4" textLength="48.8" clip-path="url(#terminal-3109079472-line-6)">&#160;&#160;⚙&#160;</text><text class="terminal-3109079472-r10" x="73.2" y="166.4" textLength="48.8" clip-path="url(#terminal-3109079472-line-6)">Read</text><text class="terminal-3109079472-r5" x="122" y="166.4" textLength="305" clip-path="url(#terminal-3109079472-line-6)">&#160;&#160;deerflow/tui/runtime.py</text><text class="terminal-3109079472-r11" x="427" y="166.4" textLength="48.8" clip-path="url(#terminal-3109079472-line-6)">&#160;&#160;&#160;✓</text><text class="terminal-3109079472-r1" x="1268.8" y="166.4" textLength="12.2" clip-path="url(#terminal-3109079472-line-6)">
</text><text class="terminal-3109079472-r5" x="24.4" y="190.8" textLength="719.8" clip-path="url(#terminal-3109079472-line-7)">&#160;&#160;&#160;&#160;def&#160;stream_actions(client,&#160;message):&#160;yield&#160;RunStarted()</text><text class="terminal-3109079472-r1" x="1268.8" y="190.8" textLength="12.2" clip-path="url(#terminal-3109079472-line-7)">
</text><text class="terminal-3109079472-r1" x="1268.8" y="215.2" textLength="12.2" clip-path="url(#terminal-3109079472-line-8)">
</text><text class="terminal-3109079472-r9" x="24.4" y="239.6" textLength="48.8" clip-path="url(#terminal-3109079472-line-9)">&#160;&#160;⚙&#160;</text><text class="terminal-3109079472-r10" x="73.2" y="239.6" textLength="48.8" clip-path="url(#terminal-3109079472-line-9)">Bash</text><text class="terminal-3109079472-r5" x="122" y="239.6" textLength="451.4" clip-path="url(#terminal-3109079472-line-9)">&#160;&#160;pytest&#160;tests/test_tui_runtime.py&#160;-q</text><text class="terminal-3109079472-r11" x="573.4" y="239.6" textLength="48.8" clip-path="url(#terminal-3109079472-line-9)">&#160;&#160;&#160;✓</text><text class="terminal-3109079472-r1" x="1268.8" y="239.6" textLength="12.2" clip-path="url(#terminal-3109079472-line-9)">
</text><text class="terminal-3109079472-r5" x="24.4" y="264" textLength="256.2" clip-path="url(#terminal-3109079472-line-10)">&#160;&#160;&#160;&#160;9&#160;passed&#160;in&#160;0.20s</text><text class="terminal-3109079472-r1" x="1268.8" y="264" textLength="12.2" clip-path="url(#terminal-3109079472-line-10)">
</text><text class="terminal-3109079472-r1" x="1268.8" y="288.4" textLength="12.2" clip-path="url(#terminal-3109079472-line-11)">
</text><text class="terminal-3109079472-r8" x="24.4" y="312.8" textLength="24.4" clip-path="url(#terminal-3109079472-line-12)">●&#160;</text><text class="terminal-3109079472-r3" x="48.8" y="312.8" textLength="1171.2" clip-path="url(#terminal-3109079472-line-12)">Done&#160;—&#160;9&#160;tests&#160;pass.&#160;Every&#160;run&#160;is&#160;now&#160;bracketed&#160;with&#160;RunStarted/RunEnded,&#160;and&#160;errors&#160;surface&#160;as&#160;</text><text class="terminal-3109079472-r1" x="1268.8" y="312.8" textLength="12.2" clip-path="url(#terminal-3109079472-line-12)">
</text><text class="terminal-3109079472-r3" x="24.4" y="337.2" textLength="451.4" clip-path="url(#terminal-3109079472-line-13)">an&#160;assistant&#160;row&#160;instead&#160;of&#160;crashing.</text><text class="terminal-3109079472-r1" x="1268.8" y="337.2" textLength="12.2" clip-path="url(#terminal-3109079472-line-13)">
</text><text class="terminal-3109079472-r1" x="1268.8" y="361.6" textLength="12.2" clip-path="url(#terminal-3109079472-line-14)">
</text><text class="terminal-3109079472-r1" x="1268.8" y="386" textLength="12.2" clip-path="url(#terminal-3109079472-line-15)">
</text><text class="terminal-3109079472-r1" x="1268.8" y="410.4" textLength="12.2" clip-path="url(#terminal-3109079472-line-16)">
</text><text class="terminal-3109079472-r1" x="1268.8" y="434.8" textLength="12.2" clip-path="url(#terminal-3109079472-line-17)">
</text><text class="terminal-3109079472-r1" x="1268.8" y="459.2" textLength="12.2" clip-path="url(#terminal-3109079472-line-18)">
</text><text class="terminal-3109079472-r1" x="1268.8" y="483.6" textLength="12.2" clip-path="url(#terminal-3109079472-line-19)">
</text><text class="terminal-3109079472-r1" x="1268.8" y="508" textLength="12.2" clip-path="url(#terminal-3109079472-line-20)">
</text><text class="terminal-3109079472-r1" x="1268.8" y="532.4" textLength="12.2" clip-path="url(#terminal-3109079472-line-21)">
</text><text class="terminal-3109079472-r1" x="1268.8" y="556.8" textLength="12.2" clip-path="url(#terminal-3109079472-line-22)">
</text><text class="terminal-3109079472-r1" x="1268.8" y="581.2" textLength="12.2" clip-path="url(#terminal-3109079472-line-23)">
</text><text class="terminal-3109079472-r1" x="1268.8" y="605.6" textLength="12.2" clip-path="url(#terminal-3109079472-line-24)">
</text><text class="terminal-3109079472-r1" x="1268.8" y="630" textLength="12.2" clip-path="url(#terminal-3109079472-line-25)">
</text><text class="terminal-3109079472-r1" x="1268.8" y="654.4" textLength="12.2" clip-path="url(#terminal-3109079472-line-26)">
</text><text class="terminal-3109079472-r12" x="12.2" y="678.8" textLength="85.4" clip-path="url(#terminal-3109079472-line-27)">●&#160;ready</text><text class="terminal-3109079472-r13" x="134.2" y="678.8" textLength="183" clip-path="url(#terminal-3109079472-line-27)">claude-opus-4.8</text><text class="terminal-3109079472-r6" x="353.8" y="678.8" textLength="183" clip-path="url(#terminal-3109079472-line-27)">thread&#160;4f2a8c1d</text><text class="terminal-3109079472-r5" x="573.4" y="678.8" textLength="97.6" clip-path="url(#terminal-3109079472-line-27)">1234&#160;tok</text><text class="terminal-3109079472-r1" x="1268.8" y="678.8" textLength="12.2" clip-path="url(#terminal-3109079472-line-27)">
</text><text class="terminal-3109079472-r13" x="12.2" y="703.2" textLength="12.2" clip-path="url(#terminal-3109079472-line-28)">╭</text><text class="terminal-3109079472-r13" x="24.4" y="703.2" textLength="1220" clip-path="url(#terminal-3109079472-line-28)">────────────────────────────────────────────────────────────────────────────────────────────────────</text><text class="terminal-3109079472-r13" x="1244.4" y="703.2" textLength="12.2" clip-path="url(#terminal-3109079472-line-28)">╮</text><text class="terminal-3109079472-r1" x="1268.8" y="703.2" textLength="12.2" clip-path="url(#terminal-3109079472-line-28)">
</text><text class="terminal-3109079472-r13" x="12.2" y="727.6" textLength="12.2" clip-path="url(#terminal-3109079472-line-29)">│</text><text class="terminal-3109079472-r14" x="48.8" y="727.6" textLength="341.6" clip-path="url(#terminal-3109079472-line-29)">explain&#160;the&#160;title&#160;middleware</text><text class="terminal-3109079472-r13" x="1244.4" y="727.6" textLength="12.2" clip-path="url(#terminal-3109079472-line-29)">│</text><text class="terminal-3109079472-r1" x="1268.8" y="727.6" textLength="12.2" clip-path="url(#terminal-3109079472-line-29)">
</text><text class="terminal-3109079472-r13" x="12.2" y="752" textLength="12.2" clip-path="url(#terminal-3109079472-line-30)">╰</text><text class="terminal-3109079472-r13" x="24.4" y="752" textLength="1220" clip-path="url(#terminal-3109079472-line-30)">────────────────────────────────────────────────────────────────────────────────────────────────────</text><text class="terminal-3109079472-r13" x="1244.4" y="752" textLength="12.2" clip-path="url(#terminal-3109079472-line-30)">╯</text><text class="terminal-3109079472-r1" x="1268.8" y="752" textLength="12.2" clip-path="url(#terminal-3109079472-line-30)">
</text>
    </g>
    </g>
</svg>
