<svg class="rich-terminal" viewBox="0 0 1287 1026.0" xmlns="http://www.w3.org/2000/svg">
    <!-- Generated with Rich https://www.textualize.io -->
    <style>

    @font-face {
        font-family: "Fira Code";
        src: local("FiraCode-Regular"),
                url("https://cdnjs.cloudflare.com/ajax/libs/firacode/6.2.0/woff2/FiraCode-Regular.woff2") format("woff2"),
                url("https://cdnjs.cloudflare.com/ajax/libs/firacode/6.2.0/woff/FiraCode-Regular.woff") format("woff");
        font-style: normal;
        font-weight: 400;
    }
    @font-face {
        font-family: "Fira Code";
        src: local("FiraCode-Bold"),
                url("https://cdnjs.cloudflare.com/ajax/libs/firacode/6.2.0/woff2/FiraCode-Bold.woff2") format("woff2"),
                url("https://cdnjs.cloudflare.com/ajax/libs/firacode/6.2.0/woff/FiraCode-Bold.woff") format("woff");
        font-style: bold;
        font-weight: 700;
    }

    .terminal-1276861884-matrix {
        font-family: Fira Code, monospace;
        font-size: 20px;
        line-height: 24.4px;
        font-variant-east-asian: full-width;
    }

    .terminal-1276861884-title {
        font-size: 18px;
        font-weight: bold;
        font-family: arial;
    }

    .terminal-1276861884-r1 { fill: #c5c8c6 }
.terminal-1276861884-r2 { fill: #1a1b26;font-weight: bold }
.terminal-1276861884-r3 { fill: #c0caf5 }
.terminal-1276861884-r4 { fill: #7dcfff;font-weight: bold }
.terminal-1276861884-r5 { fill: #565f89 }
.terminal-1276861884-r6 { fill: #737aa2 }
.terminal-1276861884-r7 { fill: #7aa2f7;font-weight: bold }
.terminal-1276861884-r8 { fill: #c0caf5;font-weight: bold }
.terminal-1276861884-r9 { fill: #f4005f;text-decoration: underline; }
.terminal-1276861884-r10 { fill: #9d65ff;text-decoration: underline; }
.terminal-1276861884-r11 { fill: #58d1eb;font-weight: bold }
.terminal-1276861884-r12 { fill: #f4005f }
.terminal-1276861884-r13 { fill: #878eae }
.terminal-1276861884-r14 { fill: #58d1eb }
.terminal-1276861884-r15 { fill: #9ece6a;font-weight: bold }
.terminal-1276861884-r16 { fill: #737aa2;font-style: italic; }
.terminal-1276861884-r17 { fill: #7dcfff }
.terminal-1276861884-r18 { fill: #121212 }
.terminal-1276861884-r19 { fill: #797c86 }
.terminal-1276861884-r20 { fill: #e0e0e0 }
    </style>

    <defs>
    <clipPath id="terminal-1276861884-clip-terminal">
      <rect x="0" y="0" width="1267.8" height="975.0" />
    </clipPath>
    <clipPath id="terminal-1276861884-line-0">
    <rect x="0" y="1.5" width="1268.8" height="24.65"/>
            </clipPath>
<clipPath id="terminal-1276861884-line-1">
    <rect x="0" y="25.9" width="1268.8" height="24.65"/>
            </clipPath>
<clipPath id="terminal-1276861884-line-2">
    <rect x="0" y="50.3" width="1268.8" height="24.65"/>
            </clipPath>
<clipPath id="terminal-1276861884-line-3">
    <rect x="0" y="74.7" width="1268.8" height="24.65"/>
            </clipPath>
<clipPath id="terminal-1276861884-line-4">
    <rect x="0" y="99.1" width="1268.8" height="24.65"/>
            </clipPath>
<clipPath id="terminal-1276861884-line-5">
    <rect x="0" y="123.5" width="1268.8" height="24.65"/>
            </clipPath>
<clipPath id="terminal-1276861884-line-6">
    <rect x="0" y="147.9" width="1268.8" height="24.65"/>
            </clipPath>
<clipPath id="terminal-1276861884-line-7">
    <rect x="0" y="172.3" width="1268.8" height="24.65"/>
            </clipPath>
<clipPath id="terminal-1276861884-line-8">
    <rect x="0" y="196.7" width="1268.8" height="24.65"/>
            </clipPath>
<clipPath id="terminal-1276861884-line-9">
    <rect x="0" y="221.1" width="1268.8" height="24.65"/>
            </clipPath>
<clipPath id="terminal-1276861884-line-10">
    <rect x="0" y="245.5" width="1268.8" height="24.65"/>
            </clipPath>
<clipPath id="terminal-1276861884-line-11">
    <rect x="0" y="269.9" width="1268.8" height="24.65"/>
            </clipPath>
<clipPath id="terminal-1276861884-line-12">
    <rect x="0" y="294.3" width="1268.8" height="24.65"/>
            </clipPath>
<clipPath id="terminal-1276861884-line-13">
    <rect x="0" y="318.7" width="1268.8" height="24.65"/>
            </clipPath>
<clipPath id="terminal-1276861884-line-14">
    <rect x="0" y="343.1" width="1268.8" height="24.65"/>
            </clipPath>
<clipPath id="terminal-1276861884-line-15">
    <rect x="0" y="367.5" width="1268.8" height="24.65"/>
            </clipPath>
<clipPath id="terminal-1276861884-line-16">
    <rect x="0" y="391.9" width="1268.8" height="24.65"/>
            </clipPath>
<clipPath id="terminal-1276861884-line-17">
    <rect x="0" y="416.3" width="1268.8" height="24.65"/>
            </clipPath>
<clipPath id="terminal-1276861884-line-18">
    <rect x="0" y="440.7" width="1268.8" height="24.65"/>
            </clipPath>
<clipPath id="terminal-1276861884-line-19">
    <rect x="0" y="465.1" width="1268.8" height="24.65"/>
            </clipPath>
<clipPath id="terminal-1276861884-line-20">
    <rect x="0" y="489.5" width="1268.8" height="24.65"/>
            </clipPath>
<clipPath id="terminal-1276861884-line-21">
    <rect x="0" y="513.9" width="1268.8" height="24.65"/>
            </clipPath>
<clipPath id="terminal-1276861884-line-22">
    <rect x="0" y="538.3" width="1268.8" height="24.65"/>
            </clipPath>
<clipPath id="terminal-1276861884-line-23">
    <rect x="0" y="562.7" width="1268.8" height="24.65"/>
            </clipPath>
<clipPath id="terminal-1276861884-line-24">
    <rect x="0" y="587.1" width="1268.8" height="24.65"/>
            </clipPath>
<clipPath id="terminal-1276861884-line-25">
    <rect x="0" y="611.5" width="1268.8" height="24.65"/>
            </clipPath>
<clipPath id="terminal-1276861884-line-26">
    <rect x="0" y="635.9" width="1268.8" height="24.65"/>
            </clipPath>
<clipPath id="terminal-1276861884-line-27">
    <rect x="0" y="660.3" width="1268.8" height="24.65"/>
            </clipPath>
<clipPath id="terminal-1276861884-line-28">
    <rect x="0" y="684.7" width="1268.8" height="24.65"/>
            </clipPath>
<clipPath id="terminal-1276861884-line-29">
    <rect x="0" y="709.1" width="1268.8" height="24.65"/>
            </clipPath>
<clipPath id="terminal-1276861884-line-30">
    <rect x="0" y="733.5" width="1268.8" height="24.65"/>
            </clipPath>
<clipPath id="terminal-1276861884-line-31">
    <rect x="0" y="757.9" width="1268.8" height="24.65"/>
            </clipPath>
<clipPath id="terminal-1276861884-line-32">
    <rect x="0" y="782.3" width="1268.8" height="24.65"/>
            </clipPath>
<clipPath id="terminal-1276861884-line-33">
    <rect x="0" y="806.7" width="1268.8" height="24.65"/>
            </clipPath>
<clipPath id="terminal-1276861884-line-34">
    <rect x="0" y="831.1" width="1268.8" height="24.65"/>
            </clipPath>
<clipPath id="terminal-1276861884-line-35">
    <rect x="0" y="855.5" width="1268.8" height="24.65"/>
            </clipPath>
<clipPath id="terminal-1276861884-line-36">
    <rect x="0" y="879.9" width="1268.8" height="24.65"/>
            </clipPath>
<clipPath id="terminal-1276861884-line-37">
    <rect x="0" y="904.3" width="1268.8" height="24.65"/>
            </clipPath>
<clipPath id="terminal-1276861884-line-38">
    <rect x="0" y="928.7" width="1268.8" height="24.65"/>
            </clipPath>
    </defs>

    <rect fill="#292929" stroke="rgba(255,255,255,0.35)" stroke-width="1" x="1" y="1" width="1285" height="1024" rx="8"/><text class="terminal-1276861884-title" fill="#c5c8c6" text-anchor="middle" x="642" y="27">DeerFlow&#160;TUI&#160;—&#160;markdown</text>
            <g transform="translate(26,22)">
            <circle cx="0" cy="0" r="7" fill="#ff5f57"/>
            <circle cx="22" cy="0" r="7" fill="#febc2e"/>
            <circle cx="44" cy="0" r="7" fill="#28c840"/>
            </g>
        
    <g transform="translate(9, 41)" clip-path="url(#terminal-1276861884-clip-terminal)">
    <rect fill="#1f2335" x="0" y="1.5" width="12.2" height="24.65" shape-rendering="crispEdges"/><rect fill="#7dcfff" x="12.2" y="1.5" width="122" height="24.65" shape-rendering="crispEdges"/><rect fill="#1f2335" x="134.2" y="1.5" width="24.4" height="24.65" shape-rendering="crispEdges"/><rect fill="#1f2335" x="158.6" y="1.5" width="109.8" height="24.65" shape-rendering="crispEdges"/><rect fill="#1f2335" x="268.4" y="1.5" width="61" height="24.65" shape-rendering="crispEdges"/><rect fill="#1f2335" x="329.4" y="1.5" width="183" height="24.65" shape-rendering="crispEdges"/><rect fill="#1f2335" x="512.4" y="1.5" width="61" height="24.65" shape-rendering="crispEdges"/><rect fill="#1f2335" x="573.4" y="1.5" width="488" height="24.65" shape-rendering="crispEdges"/><rect fill="#1f2335" x="1061.4" y="1.5" width="61" height="24.65" shape-rendering="crispEdges"/><rect fill="#1f2335" x="1122.4" y="1.5" width="109.8" height="24.65" shape-rendering="crispEdges"/><rect fill="#1f2335" x="1232.2" y="1.5" width="24.4" height="24.65" shape-rendering="crispEdges"/><rect fill="#1f2335" x="1256.6" y="1.5" width="12.2" height="24.65" shape-rendering="crispEdges"/><rect fill="#1a1b26" x="0" y="25.9" width="1244.4" height="24.65" shape-rendering="crispEdges"/><rect fill="#1a1b26" x="1244.4" y="25.9" width="24.4" height="24.65" shape-rendering="crispEdges"/><rect fill="#1a1b26" x="0" y="50.3" width="24.4" height="24.65" shape-rendering="crispEdges"/><rect fill="#1a1b26" x="24.4" y="50.3" width="24.4" height="24.65" shape-rendering="crispEdges"/><rect fill="#1a1b26" x="48.8" y="50.3" width="500.2" height="24.65" shape-rendering="crispEdges"/><rect fill="#1a1b26" x="549" y="50.3" width="671" height="24.65" shape-rendering="crispEdges"/><rect fill="#1a1b26" x="1220" y="50.3" width="24.4" height="24.65" shape-rendering="crispEdges"/><rect fill="#1a1b26" x="1244.4" y="50.3" width="24.4" height="24.65" shape-rendering="crispEdges"/><rect fill="#1a1b26" x="0" y="74.7" width="24.4" height="24.65" shape-rendering="crispEdges"/><rect fill="#1a1b26" x="24.4" y="74.7" width="0" height="24.65" shape-rendering="crispEdges"/><rect fill="#1a1b26" x="24.4" y="74.7" width="1195.6" height="24.65" shape-rendering="crispEdges"/><rect fill="#1a1b26" x="1220" y="74.7" width="24.4" height="24.65" shape-rendering="crispEdges"/><rect fill="#1a1b26" x="1244.4" y="74.7" width="24.4" height="24.65" shape-rendering="crispEdges"/><rect fill="#1a1b26" x="0" y="99.1" width="24.4" height="24.65" shape-rendering="crispEdges"/><rect fill="#1a1b26" x="24.4" y="99.1" width="12.2" height="24.65" shape-rendering="crispEdges"/><rect fill="#1a1b26" x="36.6" y="99.1" width="12.2" height="24.65" shape-rendering="crispEdges"/><rect fill="#1a1b26" x="48.8" y="99.1" width="85.4" height="24.65" shape-rendering="crispEdges"/><rect fill="#1a1b26" x="134.2" y="99.1" width="36.6" height="24.65" shape-rendering="crispEdges"/><rect fill="#1a1b26" x="170.8" y="99.1" width="390.4" height="24.65" shape-rendering="crispEdges"/><rect fill="#1a1b26" x="561.2" y="99.1" width="97.6" height="24.65" shape-rendering="crispEdges"/><rect fill="#1a1b26" x="658.8" y="99.1" width="561.2" height="24.65" shape-rendering="crispEdges"/><rect fill="#1a1b26" x="1220" y="99.1" width="24.4" height="24.65" shape-rendering="crispEdges"/><rect fill="#1a1b26" x="1244.4" y="99.1" width="24.4" height="24.65" shape-rendering="crispEdges"/><rect fill="#1a1b26" x="0" y="123.5" width="24.4" height="24.65" shape-rendering="crispEdges"/><rect fill="#1a1b26" x="24.4" y="123.5" width="24.4" height="24.65" shape-rendering="crispEdges"/><rect fill="#1a1b26" x="48.8" y="123.5" width="1171.2" height="24.65" shape-rendering="crispEdges"/><rect fill="#1a1b26" x="1220" y="123.5" width="24.4" height="24.65" shape-rendering="crispEdges"/><rect fill="#1a1b26" x="1244.4" y="123.5" width="24.4" height="24.65" shape-rendering="crispEdges"/><rect fill="#1a1b26" x="0" y="147.9" width="24.4" height="24.65" shape-rendering="crispEdges"/><rect fill="#1a1b26" x="24.4" y="147.9" width="24.4" height="24.65" shape-rendering="crispEdges"/><rect fill="#1a1b26" x="48.8" y="147.9" width="134.2" height="24.65" shape-rendering="crispEdges"/><rect fill="#1a1b26" x="183" y="147.9" width="1037" height="24.65" shape-rendering="crispEdges"/><rect fill="#1a1b26" x="1220" y="147.9" width="24.4" height="24.65" shape-rendering="crispEdges"/><rect fill="#1a1b26" x="1244.4" y="147.9" width="24.4" height="24.65" shape-rendering="crispEdges"/><rect fill="#1a1b26" x="0" y="172.3" width="24.4" height="24.65" shape-rendering="crispEdges"/><rect fill="#1a1b26" x="24.4" y="172.3" width="24.4" height="24.65" shape-rendering="crispEdges"/><rect fill="#1a1b26" x="48.8" y="172.3" width="1171.2" height="24.65" shape-rendering="crispEdges"/><rect fill="#1a1b26" x="1220" y="172.3" width="24.4" height="24.65" shape-rendering="crispEdges"/><rect fill="#1a1b26" x="1244.4" y="172.3" width="24.4" height="24.65" shape-rendering="crispEdges"/><rect fill="#1a1b26" x="0" y="196.7" width="24.4" height="24.65" shape-rendering="crispEdges"/><rect fill="#1a1b26" x="24.4" y="196.7" width="24.4" height="24.65" shape-rendering="crispEdges"/><rect fill="#1a1b26" x="48.8" y="196.7" width="512.4" height="24.65" shape-rendering="crispEdges"/><rect fill="#1a1b26" x="561.2" y="196.7" width="48.8" height="24.65" shape-rendering="crispEdges"/><rect fill="#1a1b26" x="610" y="196.7" width="610" height="24.65" shape-rendering="crispEdges"/><rect fill="#1a1b26" x="1220" y="196.7" width="24.4" height="24.65" shape-rendering="crispEdges"/><rect fill="#1a1b26" x="1244.4" y="196.7" width="24.4" height="24.65" shape-rendering="crispEdges"/><rect fill="#1a1b26" x="0" y="221.1" width="24.4" height="24.65" shape-rendering="crispEdges"/><rect fill="#1a1b26" x="24.4" y="221.1" width="24.4" height="24.65" shape-rendering="crispEdges"/><rect fill="#1a1b26" x="48.8" y="221.1" width="1171.2" height="24.65" shape-rendering="crispEdges"/><rect fill="#1a1b26" x="1220" y="221.1" width="24.4" height="24.65" shape-rendering="crispEdges"/><rect fill="#1a1b26" x="1244.4" y="221.1" width="24.4" height="24.65" shape-rendering="crispEdges"/><rect fill="#1a1b26" x="0" y="245.5" width="24.4" height="24.65" shape-rendering="crispEdges"/><rect fill="#1a1b26" x="24.4" y="245.5" width="24.4" height="24.65" shape-rendering="crispEdges"/><rect fill="#1a1b26" x="48.8" y="245.5" width="36.6" height="24.65" shape-rendering="crispEdges"/><rect fill="#1a1b26" x="85.4" y="245.5" width="48.8" height="24.65" shape-rendering="crispEdges"/><rect fill="#1a1b26" x="134.2" y="245.5" width="1085.8" height="24.65" shape-rendering="crispEdges"/><rect fill="#1a1b26" x="1220" y="245.5" width="24.4" height="24.65" shape-rendering="crispEdges"/><rect fill="#1a1b26" x="1244.4" y="245.5" width="24.4" height="24.65" shape-rendering="crispEdges"/><rect fill="#1a1b26" x="0" y="269.9" width="24.4" height="24.65" shape-rendering="crispEdges"/><rect fill="#1a1b26" x="24.4" y="269.9" width="24.4" height="24.65" shape-rendering="crispEdges"/><rect fill="#1a1b26" x="48.8" y="269.9" width="36.6" height="24.65" shape-rendering="crispEdges"/><rect fill="#1a1b26" x="85.4" y="269.9" width="48.8" height="24.65" shape-rendering="crispEdges"/><rect fill="#1a1b26" x="134.2" y="269.9" width="1085.8" height="24.65" shape-rendering="crispEdges"/><rect fill="#1a1b26" x="1220" y="269.9" width="24.4" height="24.65" shape-rendering="crispEdges"/><rect fill="#1a1b26" x="1244.4" y="269.9" width="24.4" height="24.65" shape-rendering="crispEdges"/><rect fill="#1a1b26" x="0" y="294.3" width="24.4" height="24.65" shape-rendering="crispEdges"/><rect fill="#1a1b26" x="24.4" y="294.3" width="24.4" height="24.65" shape-rendering="crispEdges"/><rect fill="#1a1b26" x="48.8" y="294.3" width="36.6" height="24.65" shape-rendering="crispEdges"/><rect fill="#1a1b26" x="85.4" y="294.3" width="48.8" height="24.65" shape-rendering="crispEdges"/><rect fill="#1a1b26" x="134.2" y="294.3" width="1085.8" height="24.65" shape-rendering="crispEdges"/><rect fill="#1a1b26" x="1220" y="294.3" width="24.4" height="24.65" shape-rendering="crispEdges"/><rect fill="#1a1b26" x="1244.4" y="294.3" width="24.4" height="24.65" shape-rendering="crispEdges"/><rect fill="#1a1b26" x="0" y="318.7" width="24.4" height="24.65" shape-rendering="crispEdges"/><rect fill="#1a1b26" x="24.4" y="318.7" width="24.4" height="24.65" shape-rendering="crispEdges"/><rect fill="#1a1b26" x="48.8" y="318.7" width="1171.2" height="24.65" shape-rendering="crispEdges"/><rect fill="#1a1b26" x="1220" y="318.7" width="24.4" height="24.65" shape-rendering="crispEdges"/><rect fill="#1a1b26" x="1244.4" y="318.7" width="24.4" height="24.65" shape-rendering="crispEdges"/><rect fill="#1a1b26" x="0" y="343.1" width="24.4" height="24.65" shape-rendering="crispEdges"/><rect fill="#1a1b26" x="24.4" y="343.1" width="24.4" height="24.65" shape-rendering="crispEdges"/><rect fill="#1a1b26" x="48.8" y="343.1" width="158.6" height="24.65" shape-rendering="crispEdges"/><rect fill="#1a1b26" x="207.4" y="343.1" width="1012.6" height="24.65" shape-rendering="crispEdges"/><rect fill="#1a1b26" x="1220" y="343.1" width="24.4" height="24.65" shape-rendering="crispEdges"/><rect fill="#1a1b26" x="1244.4" y="343.1" width="24.4" height="24.65" shape-rendering="crispEdges"/><rect fill="#1a1b26" x="0" y="367.5" width="24.4" height="24.65" shape-rendering="crispEdges"/><rect fill="#1a1b26" x="24.4" y="367.5" width="24.4" height="24.65" shape-rendering="crispEdges"/><rect fill="#1a1b26" x="48.8" y="367.5" width="1171.2" height="24.65" shape-rendering="crispEdges"/><rect fill="#1a1b26" x="1220" y="367.5" width="24.4" height="24.65" shape-rendering="crispEdges"/><rect fill="#1a1b26" x="1244.4" y="367.5" width="24.4" height="24.65" shape-rendering="crispEdges"/><rect fill="#1a1b26" x="0" y="391.9" width="24.4" height="24.65" shape-rendering="crispEdges"/><rect fill="#1a1b26" x="24.4" y="391.9" width="24.4" height="24.65" shape-rendering="crispEdges"/><rect fill="#1a1b26" x="48.8" y="391.9" width="671" height="24.65" shape-rendering="crispEdges"/><rect fill="#1a1a1a" x="719.8" y="391.9" width="146.4" height="24.65" shape-rendering="crispEdges"/><rect fill="#1a1b26" x="866.2" y="391.9" width="353.8" height="24.65" shape-rendering="crispEdges"/><rect fill="#1a1b26" x="1220" y="391.9" width="24.4" height="24.65" shape-rendering="crispEdges"/><rect fill="#1a1b26" x="1244.4" y="391.9" width="24.4" height="24.65" shape-rendering="crispEdges"/><rect fill="#1a1b26" x="0" y="416.3" width="24.4" height="24.65" shape-rendering="crispEdges"/><rect fill="#1a1b26" x="24.4" y="416.3" width="24.4" height="24.65" shape-rendering="crispEdges"/><rect fill="#1a1b26" x="48.8" y="416.3" width="1171.2" height="24.65" shape-rendering="crispEdges"/><rect fill="#1a1b26" x="1220" y="416.3" width="24.4" height="24.65" shape-rendering="crispEdges"/><rect fill="#1a1b26" x="1244.4" y="416.3" width="24.4" height="24.65" shape-rendering="crispEdges"/><rect fill="#1a1b26" x="0" y="440.7" width="24.4" height="24.65" shape-rendering="crispEdges"/><rect fill="#1a1b26" x="24.4" y="440.7" width="24.4" height="24.65" shape-rendering="crispEdges"/><rect fill="#1a1b26" x="48.8" y="440.7" width="24.4" height="24.65" shape-rendering="crispEdges"/><rect fill="#1a1b26" x="73.2" y="440.7" width="427" height="24.65" shape-rendering="crispEdges"/><rect fill="#1a1b26" x="500.2" y="440.7" width="695.4" height="24.65" shape-rendering="crispEdges"/><rect fill="#1a1b26" x="1195.6" y="440.7" width="24.4" height="24.65" shape-rendering="crispEdges"/><rect fill="#1a1b26" x="1220" y="440.7" width="24.4" height="24.65" shape-rendering="crispEdges"/><rect fill="#1a1b26" x="1244.4" y="440.7" width="24.4" height="24.65" shape-rendering="crispEdges"/><rect fill="#1a1b26" x="0" y="465.1" width="24.4" height="24.65" shape-rendering="crispEdges"/><rect fill="#1a1b26" x="24.4" y="465.1" width="24.4" height="24.65" shape-rendering="crispEdges"/><rect fill="#1a1b26" x="48.8" y="465.1" width="1171.2" height="24.65" shape-rendering="crispEdges"/><rect fill="#1a1b26" x="1220" y="465.1" width="24.4" height="24.65" shape-rendering="crispEdges"/><rect fill="#1a1b26" x="1244.4" y="465.1" width="24.4" height="24.65" shape-rendering="crispEdges"/><rect fill="#1a1b26" x="0" y="489.5" width="24.4" height="24.65" shape-rendering="crispEdges"/><rect fill="#1a1b26" x="24.4" y="489.5" width="24.4" height="24.65" shape-rendering="crispEdges"/><rect fill="#1a1b26" x="48.8" y="489.5" width="1171.2" height="24.65" shape-rendering="crispEdges"/><rect fill="#1a1b26" x="1220" y="489.5" width="24.4" height="24.65" shape-rendering="crispEdges"/><rect fill="#1a1b26" x="1244.4" y="489.5" width="24.4" height="24.65" shape-rendering="crispEdges"/><rect fill="#1a1b26" x="0" y="513.9" width="24.4" height="24.65" shape-rendering="crispEdges"/><rect fill="#1a1b26" x="24.4" y="513.9" width="24.4" height="24.65" shape-rendering="crispEdges"/><rect fill="#1a1b26" x="48.8" y="513.9" width="1171.2" height="24.65" shape-rendering="crispEdges"/><rect fill="#1a1b26" x="1220" y="513.9" width="24.4" height="24.65" shape-rendering="crispEdges"/><rect fill="#1a1b26" x="1244.4" y="513.9" width="24.4" height="24.65" shape-rendering="crispEdges"/><rect fill="#1a1b26" x="0" y="538.3" width="24.4" height="24.65" shape-rendering="crispEdges"/><rect fill="#1a1b26" x="24.4" y="538.3" width="24.4" height="24.65" shape-rendering="crispEdges"/><rect fill="#1a1b26" x="48.8" y="538.3" width="85.4" height="24.65" shape-rendering="crispEdges"/><rect fill="#1a1b26" x="134.2" y="538.3" width="1085.8" height="24.65" shape-rendering="crispEdges"/><rect fill="#1a1b26" x="1220" y="538.3" width="24.4" height="24.65" shape-rendering="crispEdges"/><rect fill="#1a1b26" x="1244.4" y="538.3" width="24.4" height="24.65" shape-rendering="crispEdges"/><rect fill="#1a1b26" x="0" y="562.7" width="24.4" height="24.65" shape-rendering="crispEdges"/><rect fill="#1a1b26" x="24.4" y="562.7" width="24.4" height="24.65" shape-rendering="crispEdges"/><rect fill="#1a1b26" x="48.8" y="562.7" width="1171.2" height="24.65" shape-rendering="crispEdges"/><rect fill="#1a1b26" x="1220" y="562.7" width="24.4" height="24.65" shape-rendering="crispEdges"/><rect fill="#1a1b26" x="1244.4" y="562.7" width="24.4" height="24.65" shape-rendering="crispEdges"/><rect fill="#1a1b26" x="0" y="587.1" width="24.4" height="24.65" shape-rendering="crispEdges"/><rect fill="#1a1b26" x="24.4" y="587.1" width="24.4" height="24.65" shape-rendering="crispEdges"/><rect fill="#1a1b26" x="48.8" y="587.1" width="36.6" height="24.65" shape-rendering="crispEdges"/><rect fill="#1a1b26" x="85.4" y="587.1" width="219.6" height="24.65" shape-rendering="crispEdges"/><rect fill="#1a1b26" x="305" y="587.1" width="915" height="24.65" shape-rendering="crispEdges"/><rect fill="#1a1b26" x="1220" y="587.1" width="24.4" height="24.65" shape-rendering="crispEdges"/><rect fill="#1a1b26" x="1244.4" y="587.1" width="24.4" height="24.65" shape-rendering="crispEdges"/><rect fill="#1a1b26" x="0" y="611.5" width="24.4" height="24.65" shape-rendering="crispEdges"/><rect fill="#1a1b26" x="24.4" y="611.5" width="24.4" height="24.65" shape-rendering="crispEdges"/><rect fill="#1a1b26" x="48.8" y="611.5" width="36.6" height="24.65" shape-rendering="crispEdges"/><rect fill="#1a1b26" x="85.4" y="611.5" width="219.6" height="24.65" shape-rendering="crispEdges"/><rect fill="#1a1b26" x="305" y="611.5" width="915" height="24.65" shape-rendering="crispEdges"/><rect fill="#1a1b26" x="1220" y="611.5" width="24.4" height="24.65" shape-rendering="crispEdges"/><rect fill="#1a1b26" x="1244.4" y="611.5" width="24.4" height="24.65" shape-rendering="crispEdges"/><rect fill="#1a1b26" x="0" y="635.9" width="24.4" height="24.65" shape-rendering="crispEdges"/><rect fill="#1a1b26" x="24.4" y="635.9" width="1195.6" height="24.65" shape-rendering="crispEdges"/><rect fill="#1a1b26" x="1220" y="635.9" width="24.4" height="24.65" shape-rendering="crispEdges"/><rect fill="#1a1b26" x="1244.4" y="635.9" width="24.4" height="24.65" shape-rendering="crispEdges"/><rect fill="#1a1b26" x="0" y="660.3" width="24.4" height="24.65" shape-rendering="crispEdges"/><rect fill="#1a1b26" x="24.4" y="660.3" width="1195.6" height="24.65" shape-rendering="crispEdges"/><rect fill="#1a1b26" x="1220" y="660.3" width="24.4" height="24.65" shape-rendering="crispEdges"/><rect fill="#1a1b26" x="1244.4" y="660.3" width="24.4" height="24.65" shape-rendering="crispEdges"/><rect fill="#1a1b26" x="0" y="684.7" width="24.4" height="24.65" shape-rendering="crispEdges"/><rect fill="#1a1b26" x="24.4" y="684.7" width="1195.6" height="24.65" shape-rendering="crispEdges"/><rect fill="#1a1b26" x="1220" y="684.7" width="24.4" height="24.65" shape-rendering="crispEdges"/><rect fill="#1a1b26" x="1244.4" y="684.7" width="24.4" height="24.65" shape-rendering="crispEdges"/><rect fill="#1a1b26" x="0" y="709.1" width="24.4" height="24.65" shape-rendering="crispEdges"/><rect fill="#1a1b26" x="24.4" y="709.1" width="1195.6" height="24.65" shape-rendering="crispEdges"/><rect fill="#1a1b26" x="1220" y="709.1" width="24.4" height="24.65" shape-rendering="crispEdges"/><rect fill="#1a1b26" x="1244.4" y="709.1" width="24.4" height="24.65" shape-rendering="crispEdges"/><rect fill="#1a1b26" x="0" y="733.5" width="24.4" height="24.65" shape-rendering="crispEdges"/><rect fill="#1a1b26" x="24.4" y="733.5" width="1195.6" height="24.65" shape-rendering="crispEdges"/><rect fill="#1a1b26" x="1220" y="733.5" width="24.4" height="24.65" shape-rendering="crispEdges"/><rect fill="#1a1b26" x="1244.4" y="733.5" width="24.4" height="24.65" shape-rendering="crispEdges"/><rect fill="#1a1b26" x="0" y="757.9" width="24.4" height="24.65" shape-rendering="crispEdges"/><rect fill="#1a1b26" x="24.4" y="757.9" width="1195.6" height="24.65" shape-rendering="crispEdges"/><rect fill="#1a1b26" x="1220" y="757.9" width="24.4" height="24.65" shape-rendering="crispEdges"/><rect fill="#1a1b26" x="1244.4" y="757.9" width="24.4" height="24.65" shape-rendering="crispEdges"/><rect fill="#1a1b26" x="0" y="782.3" width="24.4" height="24.65" shape-rendering="crispEdges"/><rect fill="#1a1b26" x="24.4" y="782.3" width="1195.6" height="24.65" shape-rendering="crispEdges"/><rect fill="#1a1b26" x="1220" y="782.3" width="24.4" height="24.65" shape-rendering="crispEdges"/><rect fill="#1a1b26" x="1244.4" y="782.3" width="24.4" height="24.65" shape-rendering="crispEdges"/><rect fill="#1a1b26" x="0" y="806.7" width="24.4" height="24.65" shape-rendering="crispEdges"/><rect fill="#1a1b26" x="24.4" y="806.7" width="1195.6" height="24.65" shape-rendering="crispEdges"/><rect fill="#1a1b26" x="1220" y="806.7" width="24.4" height="24.65" shape-rendering="crispEdges"/><rect fill="#1a1b26" x="1244.4" y="806.7" width="24.4" height="24.65" shape-rendering="crispEdges"/><rect fill="#1a1b26" x="0" y="831.1" width="1244.4" height="24.65" shape-rendering="crispEdges"/><rect fill="#1a1b26" x="1244.4" y="831.1" width="24.4" height="24.65" shape-rendering="crispEdges"/><rect fill="#1f2335" x="0" y="855.5" width="12.2" height="24.65" shape-rendering="crispEdges"/><rect fill="#1f2335" x="12.2" y="855.5" width="85.4" height="24.65" shape-rendering="crispEdges"/><rect fill="#1f2335" x="97.6" y="855.5" width="24.4" height="24.65" shape-rendering="crispEdges"/><rect fill="#1f2335" x="122" y="855.5" width="170.8" height="24.65" shape-rendering="crispEdges"/><rect fill="#1f2335" x="292.8" y="855.5" width="36.6" height="24.65" shape-rendering="crispEdges"/><rect fill="#1f2335" x="329.4" y="855.5" width="109.8" height="24.65" shape-rendering="crispEdges"/><rect fill="#1f2335" x="439.2" y="855.5" width="36.6" height="24.65" shape-rendering="crispEdges"/><rect fill="#1f2335" x="475.8" y="855.5" width="183" height="24.65" shape-rendering="crispEdges"/><rect fill="#1f2335" x="658.8" y="855.5" width="36.6" height="24.65" shape-rendering="crispEdges"/><rect fill="#1f2335" x="695.4" y="855.5" width="97.6" height="24.65" shape-rendering="crispEdges"/><rect fill="#1f2335" x="793" y="855.5" width="463.6" height="24.65" shape-rendering="crispEdges"/><rect fill="#1f2335" x="1256.6" y="855.5" width="12.2" height="24.65" shape-rendering="crispEdges"/><rect fill="#1a1b26" x="0" y="879.9" width="12.2" height="24.65" shape-rendering="crispEdges"/><rect fill="#282c3d" x="12.2" y="879.9" width="12.2" height="24.65" shape-rendering="crispEdges"/><rect fill="#282c3d" x="24.4" y="879.9" width="1220" height="24.65" shape-rendering="crispEdges"/><rect fill="#282c3d" x="1244.4" y="879.9" width="12.2" height="24.65" shape-rendering="crispEdges"/><rect fill="#1a1b26" x="1256.6" y="879.9" width="12.2" height="24.65" shape-rendering="crispEdges"/><rect fill="#1a1b26" x="0" y="904.3" width="12.2" height="24.65" shape-rendering="crispEdges"/><rect fill="#282c3d" x="12.2" y="904.3" width="12.2" height="24.65" shape-rendering="crispEdges"/><rect fill="#282c3d" x="24.4" y="904.3" width="24.4" height="24.65" shape-rendering="crispEdges"/><rect fill="#e0e0e0" x="48.8" y="904.3" width="12.2" height="24.65" shape-rendering="crispEdges"/><rect fill="#282c3d" x="61" y="904.3" width="451.4" height="24.65" shape-rendering="crispEdges"/><rect fill="#282c3d" x="512.4" y="904.3" width="707.6" height="24.65" shape-rendering="crispEdges"/><rect fill="#282c3d" x="1220" y="904.3" width="24.4" height="24.65" shape-rendering="crispEdges"/><rect fill="#282c3d" x="1244.4" y="904.3" width="12.2" height="24.65" shape-rendering="crispEdges"/><rect fill="#1a1b26" x="1256.6" y="904.3" width="12.2" height="24.65" shape-rendering="crispEdges"/><rect fill="#1a1b26" x="0" y="928.7" width="12.2" height="24.65" shape-rendering="crispEdges"/><rect fill="#282c3d" x="12.2" y="928.7" width="12.2" height="24.65" shape-rendering="crispEdges"/><rect fill="#282c3d" x="24.4" y="928.7" width="1220" height="24.65" shape-rendering="crispEdges"/><rect fill="#282c3d" x="1244.4" y="928.7" width="12.2" height="24.65" shape-rendering="crispEdges"/><rect fill="#1a1b26" x="1256.6" y="928.7" width="12.2" height="24.65" shape-rendering="crispEdges"/><rect fill="#1a1b26" x="0" y="953.1" width="1268.8" height="24.65" shape-rendering="crispEdges"/>
    <g class="terminal-1276861884-matrix">
    <text class="terminal-1276861884-r2" x="12.2" y="20" textLength="122" clip-path="url(#terminal-1276861884-line-0)">&#160;DeerFlow&#160;</text><text class="terminal-1276861884-r4" x="158.6" y="20" textLength="109.8" clip-path="url(#terminal-1276861884-line-0)">kimi-k2.6</text><text class="terminal-1276861884-r5" x="268.4" y="20" textLength="61" clip-path="url(#terminal-1276861884-line-0)">&#160;&#160;·&#160;&#160;</text><text class="terminal-1276861884-r6" x="329.4" y="20" textLength="183" clip-path="url(#terminal-1276861884-line-0)">thread&#160;b0bc1580</text><text class="terminal-1276861884-r5" x="512.4" y="20" textLength="61" clip-path="url(#terminal-1276861884-line-0)">&#160;&#160;·&#160;&#160;</text><text class="terminal-1276861884-r5" x="573.4" y="20" textLength="488" clip-path="url(#terminal-1276861884-line-0)">/Users/taohe/workspace/deer-flow/backend</text><text class="terminal-1276861884-r5" x="1061.4" y="20" textLength="61" clip-path="url(#terminal-1276861884-line-0)">&#160;&#160;·&#160;&#160;</text><text class="terminal-1276861884-r5" x="1122.4" y="20" textLength="109.8" clip-path="url(#terminal-1276861884-line-0)">12&#160;skills</text><text class="terminal-1276861884-r1" x="1268.8" y="20" textLength="12.2" clip-path="url(#terminal-1276861884-line-0)">
</text><text class="terminal-1276861884-r1" x="1268.8" y="44.4" textLength="12.2" clip-path="url(#terminal-1276861884-line-1)">
</text><text class="terminal-1276861884-r7" x="24.4" y="68.8" textLength="24.4" clip-path="url(#terminal-1276861884-line-2)">›&#160;</text><text class="terminal-1276861884-r7" x="48.8" y="68.8" textLength="256.2" clip-path="url(#terminal-1276861884-line-2)">世界杯小组赛第二轮总结一下，C罗表现怎么样</text><text class="terminal-1276861884-r1" x="1268.8" y="68.8" textLength="12.2" clip-path="url(#terminal-1276861884-line-2)">
</text><text class="terminal-1276861884-r1" x="1268.8" y="93.2" textLength="12.2" clip-path="url(#terminal-1276861884-line-3)">
</text><text class="terminal-1276861884-r8" x="24.4" y="117.6" textLength="12.2" clip-path="url(#terminal-1276861884-line-4)">●</text><text class="terminal-1276861884-r3" x="48.8" y="117.6" textLength="48.8" clip-path="url(#terminal-1276861884-line-4)">葡萄牙&#160;</text><text class="terminal-1276861884-r8" x="134.2" y="117.6" textLength="36.6" clip-path="url(#terminal-1276861884-line-4)">5-0</text><text class="terminal-1276861884-r3" x="170.8" y="117.6" textLength="207.4" clip-path="url(#terminal-1276861884-line-4)">&#160;横扫乌兹别克斯坦，强势反弹！C罗</text><text class="terminal-1276861884-r8" x="561.2" y="117.6" textLength="48.8" clip-path="url(#terminal-1276861884-line-4)">梅开二度</text><text class="terminal-1276861884-r3" x="658.8" y="117.6" textLength="549" clip-path="url(#terminal-1276861884-line-4)">。&#160;&#160;&#160;&#160;&#160;&#160;&#160;&#160;&#160;&#160;&#160;&#160;&#160;&#160;&#160;&#160;&#160;&#160;&#160;&#160;&#160;&#160;&#160;&#160;&#160;&#160;&#160;&#160;&#160;&#160;&#160;&#160;&#160;&#160;&#160;&#160;&#160;&#160;&#160;&#160;&#160;&#160;&#160;&#160;</text><text class="terminal-1276861884-r1" x="1268.8" y="117.6" textLength="12.2" clip-path="url(#terminal-1276861884-line-4)">
</text><text class="terminal-1276861884-r1" x="1268.8" y="142" textLength="12.2" clip-path="url(#terminal-1276861884-line-5)">
</text><text class="terminal-1276861884-r9" x="48.8" y="166.4" textLength="73.2" clip-path="url(#terminal-1276861884-line-6)">🌍&#160;整体形势</text><text class="terminal-1276861884-r1" x="1268.8" y="166.4" textLength="12.2" clip-path="url(#terminal-1276861884-line-6)">
</text><text class="terminal-1276861884-r1" x="1268.8" y="190.8" textLength="12.2" clip-path="url(#terminal-1276861884-line-7)">
</text><text class="terminal-1276861884-r3" x="48.8" y="215.2" textLength="305" clip-path="url(#terminal-1276861884-line-8)">第二轮结束后，已有&#160;6&#160;支球队提前锁定&#160;32&#160;强&#160;</text><text class="terminal-1276861884-r10" x="561.2" y="215.2" textLength="24.4" clip-path="url(#terminal-1276861884-line-8)">来源</text><text class="terminal-1276861884-r3" x="610" y="215.2" textLength="610" clip-path="url(#terminal-1276861884-line-8)">:&#160;&#160;&#160;&#160;&#160;&#160;&#160;&#160;&#160;&#160;&#160;&#160;&#160;&#160;&#160;&#160;&#160;&#160;&#160;&#160;&#160;&#160;&#160;&#160;&#160;&#160;&#160;&#160;&#160;&#160;&#160;&#160;&#160;&#160;&#160;&#160;&#160;&#160;&#160;&#160;&#160;&#160;&#160;&#160;&#160;&#160;&#160;&#160;&#160;</text><text class="terminal-1276861884-r1" x="1268.8" y="215.2" textLength="12.2" clip-path="url(#terminal-1276861884-line-8)">
</text><text class="terminal-1276861884-r1" x="1268.8" y="239.6" textLength="12.2" clip-path="url(#terminal-1276861884-line-9)">
</text><text class="terminal-1276861884-r8" x="48.8" y="264" textLength="36.6" clip-path="url(#terminal-1276861884-line-10)">&#160;•&#160;</text><text class="terminal-1276861884-r8" x="85.4" y="264" textLength="24.4" clip-path="url(#terminal-1276861884-line-10)">欧洲</text><text class="terminal-1276861884-r3" x="134.2" y="264" textLength="878.4" clip-path="url(#terminal-1276861884-line-10)">：德国（E组，两战&#160;9&#160;进球）、法国、挪威&#160;&#160;&#160;&#160;&#160;&#160;&#160;&#160;&#160;&#160;&#160;&#160;&#160;&#160;&#160;&#160;&#160;&#160;&#160;&#160;&#160;&#160;&#160;&#160;&#160;&#160;&#160;&#160;&#160;&#160;&#160;&#160;&#160;&#160;&#160;&#160;&#160;&#160;&#160;&#160;&#160;&#160;&#160;&#160;&#160;&#160;&#160;&#160;&#160;&#160;&#160;</text><text class="terminal-1276861884-r1" x="1268.8" y="264" textLength="12.2" clip-path="url(#terminal-1276861884-line-10)">
</text><text class="terminal-1276861884-r8" x="48.8" y="288.4" textLength="36.6" clip-path="url(#terminal-1276861884-line-11)">&#160;•&#160;</text><text class="terminal-1276861884-r8" x="85.4" y="288.4" textLength="24.4" clip-path="url(#terminal-1276861884-line-11)">南美</text><text class="terminal-1276861884-r3" x="134.2" y="288.4" textLength="1037" clip-path="url(#terminal-1276861884-line-11)">：阿根廷&#160;&#160;&#160;&#160;&#160;&#160;&#160;&#160;&#160;&#160;&#160;&#160;&#160;&#160;&#160;&#160;&#160;&#160;&#160;&#160;&#160;&#160;&#160;&#160;&#160;&#160;&#160;&#160;&#160;&#160;&#160;&#160;&#160;&#160;&#160;&#160;&#160;&#160;&#160;&#160;&#160;&#160;&#160;&#160;&#160;&#160;&#160;&#160;&#160;&#160;&#160;&#160;&#160;&#160;&#160;&#160;&#160;&#160;&#160;&#160;&#160;&#160;&#160;&#160;&#160;&#160;&#160;&#160;&#160;&#160;&#160;&#160;&#160;&#160;&#160;&#160;&#160;&#160;&#160;&#160;&#160;</text><text class="terminal-1276861884-r1" x="1268.8" y="288.4" textLength="12.2" clip-path="url(#terminal-1276861884-line-11)">
</text><text class="terminal-1276861884-r8" x="48.8" y="312.8" textLength="36.6" clip-path="url(#terminal-1276861884-line-12)">&#160;•&#160;</text><text class="terminal-1276861884-r8" x="85.4" y="312.8" textLength="24.4" clip-path="url(#terminal-1276861884-line-12)">北美</text><text class="terminal-1276861884-r3" x="134.2" y="312.8" textLength="939.4" clip-path="url(#terminal-1276861884-line-12)">：美国、墨西哥&#160;—&#160;东道主强势&#160;&#160;&#160;&#160;&#160;&#160;&#160;&#160;&#160;&#160;&#160;&#160;&#160;&#160;&#160;&#160;&#160;&#160;&#160;&#160;&#160;&#160;&#160;&#160;&#160;&#160;&#160;&#160;&#160;&#160;&#160;&#160;&#160;&#160;&#160;&#160;&#160;&#160;&#160;&#160;&#160;&#160;&#160;&#160;&#160;&#160;&#160;&#160;&#160;&#160;&#160;&#160;&#160;&#160;&#160;&#160;&#160;&#160;&#160;&#160;&#160;&#160;</text><text class="terminal-1276861884-r1" x="1268.8" y="312.8" textLength="12.2" clip-path="url(#terminal-1276861884-line-12)">
</text><text class="terminal-1276861884-r1" x="1268.8" y="337.2" textLength="12.2" clip-path="url(#terminal-1276861884-line-13)">
</text><text class="terminal-1276861884-r9" x="48.8" y="361.6" textLength="85.4" clip-path="url(#terminal-1276861884-line-14)">📅&#160;接下来看点</text><text class="terminal-1276861884-r1" x="1268.8" y="361.6" textLength="12.2" clip-path="url(#terminal-1276861884-line-14)">
</text><text class="terminal-1276861884-r1" x="1268.8" y="386" textLength="12.2" clip-path="url(#terminal-1276861884-line-15)">
</text><text class="terminal-1276861884-r3" x="48.8" y="410.4" textLength="402.6" clip-path="url(#terminal-1276861884-line-16)">小组赛第三轮（6月25–27日）是生死战。葡萄牙&#160;vs&#160;哥伦比亚&#160;</text><text class="terminal-1276861884-r11" x="719.8" y="410.4" textLength="73.2" clip-path="url(#terminal-1276861884-line-16)">打平即可出线</text><text class="terminal-1276861884-r3" x="866.2" y="410.4" textLength="341.6" clip-path="url(#terminal-1276861884-line-16)">。&#160;&#160;&#160;&#160;&#160;&#160;&#160;&#160;&#160;&#160;&#160;&#160;&#160;&#160;&#160;&#160;&#160;&#160;&#160;&#160;&#160;&#160;&#160;&#160;&#160;&#160;&#160;</text><text class="terminal-1276861884-r1" x="1268.8" y="410.4" textLength="12.2" clip-path="url(#terminal-1276861884-line-16)">
</text><text class="terminal-1276861884-r1" x="1268.8" y="434.8" textLength="12.2" clip-path="url(#terminal-1276861884-line-17)">
</text><text class="terminal-1276861884-r12" x="48.8" y="459.2" textLength="24.4" clip-path="url(#terminal-1276861884-line-18)">▌&#160;</text><text class="terminal-1276861884-r12" x="73.2" y="459.2" textLength="256.2" clip-path="url(#terminal-1276861884-line-18)">C罗&#160;41&#160;岁用一场大胜宣告&quot;王者归来&quot;。</text><text class="terminal-1276861884-r1" x="1268.8" y="459.2" textLength="12.2" clip-path="url(#terminal-1276861884-line-18)">
</text><text class="terminal-1276861884-r1" x="1268.8" y="483.6" textLength="12.2" clip-path="url(#terminal-1276861884-line-19)">
</text><text class="terminal-1276861884-r13" x="48.8" y="508" textLength="1171.2" clip-path="url(#terminal-1276861884-line-20)">------------------------------------------------------------------------------------------------</text><text class="terminal-1276861884-r1" x="1268.8" y="508" textLength="12.2" clip-path="url(#terminal-1276861884-line-20)">
</text><text class="terminal-1276861884-r1" x="1268.8" y="532.4" textLength="12.2" clip-path="url(#terminal-1276861884-line-21)">
</text><text class="terminal-1276861884-r8" x="48.8" y="556.8" textLength="85.4" clip-path="url(#terminal-1276861884-line-22)">Sources</text><text class="terminal-1276861884-r1" x="1268.8" y="556.8" textLength="12.2" clip-path="url(#terminal-1276861884-line-22)">
</text><text class="terminal-1276861884-r1" x="1268.8" y="581.2" textLength="12.2" clip-path="url(#terminal-1276861884-line-23)">
</text><text class="terminal-1276861884-r14" x="48.8" y="605.6" textLength="36.6" clip-path="url(#terminal-1276861884-line-24)">&#160;1&#160;</text><text class="terminal-1276861884-r10" x="85.4" y="605.6" textLength="134.2" clip-path="url(#terminal-1276861884-line-24)">联合早报&#160;—&#160;C罗双响</text><text class="terminal-1276861884-r1" x="1268.8" y="605.6" textLength="12.2" clip-path="url(#terminal-1276861884-line-24)">
</text><text class="terminal-1276861884-r14" x="48.8" y="630" textLength="36.6" clip-path="url(#terminal-1276861884-line-25)">&#160;2&#160;</text><text class="terminal-1276861884-r10" x="85.4" y="630" textLength="158.6" clip-path="url(#terminal-1276861884-line-25)">FIFA&#160;官网&#160;—&#160;积分榜</text><text class="terminal-1276861884-r1" x="1268.8" y="630" textLength="12.2" clip-path="url(#terminal-1276861884-line-25)">
</text><text class="terminal-1276861884-r1" x="1268.8" y="654.4" textLength="12.2" clip-path="url(#terminal-1276861884-line-26)">
</text><text class="terminal-1276861884-r1" x="1268.8" y="678.8" textLength="12.2" clip-path="url(#terminal-1276861884-line-27)">
</text><text class="terminal-1276861884-r1" x="1268.8" y="703.2" textLength="12.2" clip-path="url(#terminal-1276861884-line-28)">
</text><text class="terminal-1276861884-r1" x="1268.8" y="727.6" textLength="12.2" clip-path="url(#terminal-1276861884-line-29)">
</text><text class="terminal-1276861884-r1" x="1268.8" y="752" textLength="12.2" clip-path="url(#terminal-1276861884-line-30)">
</text><text class="terminal-1276861884-r1" x="1268.8" y="776.4" textLength="12.2" clip-path="url(#terminal-1276861884-line-31)">
</text><text class="terminal-1276861884-r1" x="1268.8" y="800.8" textLength="12.2" clip-path="url(#terminal-1276861884-line-32)">
</text><text class="terminal-1276861884-r1" x="1268.8" y="825.2" textLength="12.2" clip-path="url(#terminal-1276861884-line-33)">
</text><text class="terminal-1276861884-r1" x="1268.8" y="849.6" textLength="12.2" clip-path="url(#terminal-1276861884-line-34)">
</text><text class="terminal-1276861884-r15" x="12.2" y="874" textLength="85.4" clip-path="url(#terminal-1276861884-line-35)">●&#160;ready</text><text class="terminal-1276861884-r16" x="122" y="874" textLength="85.4" clip-path="url(#terminal-1276861884-line-35)">世界杯次轮总结</text><text class="terminal-1276861884-r17" x="329.4" y="874" textLength="109.8" clip-path="url(#terminal-1276861884-line-35)">kimi-k2.6</text><text class="terminal-1276861884-r6" x="475.8" y="874" textLength="183" clip-path="url(#terminal-1276861884-line-35)">thread&#160;b0bc1580</text><text class="terminal-1276861884-r5" x="695.4" y="874" textLength="97.6" clip-path="url(#terminal-1276861884-line-35)">4096&#160;tok</text><text class="terminal-1276861884-r1" x="1268.8" y="874" textLength="12.2" clip-path="url(#terminal-1276861884-line-35)">
</text><text class="terminal-1276861884-r17" x="12.2" y="898.4" textLength="12.2" clip-path="url(#terminal-1276861884-line-36)">╭</text><text class="terminal-1276861884-r17" x="24.4" y="898.4" textLength="1220" clip-path="url(#terminal-1276861884-line-36)">────────────────────────────────────────────────────────────────────────────────────────────────────</text><text class="terminal-1276861884-r17" x="1244.4" y="898.4" textLength="12.2" clip-path="url(#terminal-1276861884-line-36)">╮</text><text class="terminal-1276861884-r1" x="1268.8" y="898.4" textLength="12.2" clip-path="url(#terminal-1276861884-line-36)">
</text><text class="terminal-1276861884-r17" x="12.2" y="922.8" textLength="12.2" clip-path="url(#terminal-1276861884-line-37)">│</text><text class="terminal-1276861884-r18" x="48.8" y="922.8" textLength="12.2" clip-path="url(#terminal-1276861884-line-37)">M</text><text class="terminal-1276861884-r19" x="61" y="922.8" textLength="451.4" clip-path="url(#terminal-1276861884-line-37)">essage&#160;DeerFlow…&#160;&#160;&#160;(&#160;/&#160;for&#160;commands&#160;)</text><text class="terminal-1276861884-r17" x="1244.4" y="922.8" textLength="12.2" clip-path="url(#terminal-1276861884-line-37)">│</text><text class="terminal-1276861884-r1" x="1268.8" y="922.8" textLength="12.2" clip-path="url(#terminal-1276861884-line-37)">
</text><text class="terminal-1276861884-r17" x="12.2" y="947.2" textLength="12.2" clip-path="url(#terminal-1276861884-line-38)">╰</text><text class="terminal-1276861884-r17" x="24.4" y="947.2" textLength="1220" clip-path="url(#terminal-1276861884-line-38)">────────────────────────────────────────────────────────────────────────────────────────────────────</text><text class="terminal-1276861884-r17" x="1244.4" y="947.2" textLength="12.2" clip-path="url(#terminal-1276861884-line-38)">╯</text><text class="terminal-1276861884-r1" x="1268.8" y="947.2" textLength="12.2" clip-path="url(#terminal-1276861884-line-38)">
</text>
    </g>
    </g>
</svg>
